HIERARCHY
ROOT Hips
{
	OFFSET	0.00	0.00	0.00
	CHANNELS 6 Xposition Yposition Zposition Zrotation Xrotation Yrotation
	JOINT LeftUpLeg
	{
		OFFSET	 0.126116	-0.065224	 0.014019
		CHANNELS 3 Zrotation Xrotation Yrotation
		JOINT LeftLeg
		{
			OFFSET	 0.000000	 0.569914	 0.000000
			CHANNELS 3 Zrotation Xrotation Yrotation
			JOINT LeftFoot
			{
				OFFSET	 0.000000	 0.544423	 0.000000
				CHANNELS 3 Zrotation Xrotation Yrotation
				JOINT LeftToeBase
				{
					OFFSET	 0.000000	 0.207117	 0.000000
					CHANNELS 3 Zrotation Xrotation Yrotation
					End Site
					{
						OFFSET	 0.000000	 0.207117	 0.000000
					}
				}
			}
		}
	}
	JOINT RightUpLeg
	{
		OFFSET	-0.124023	-0.065224	 0.008373
		CHANNELS 3 Zrotation Xrotation Yrotation
		JOINT RightLeg
		{
			OFFSET	 0.000000	 0.570047	 0.000000
			CHANNELS 3 Zrotation Xrotation Yrotation
			JOINT RightFoot
			{
				OFFSET	 0.000000	 0.544354	 0.000000
				CHANNELS 3 Zrotation Xrotation Yrotation
				JOINT RightToeBase
				{
					OFFSET	 0.000000	 0.207540	 0.000000
					CHANNELS 3 Zrotation Xrotation Yrotation
					End Site
					{
						OFFSET	 0.000000	 0.207540	 0.000000
					}
				}
			}
		}
	}
	JOINT Spine
	{
		OFFSET	 0.000184	 0.117403	 0.007763
		CHANNELS 3 Zrotation Xrotation Yrotation
		JOINT Spine1
		{
			OFFSET	 0.000000	 0.137269	 0.000000
			CHANNELS 3 Zrotation Xrotation Yrotation
			JOINT Spine2
			{
				OFFSET	 0.000000	 0.156879	 0.000000
				CHANNELS 3 Zrotation Xrotation Yrotation
				JOINT LeftShoulder
				{
					OFFSET	 0.080501	 0.160143	 0.002496
					CHANNELS 3 Zrotation Xrotation Yrotation
					JOINT LeftArm
					{
						OFFSET	 0.000000	 0.164363	 0.000000
						CHANNELS 3 Zrotation Xrotation Yrotation
						JOINT LeftForeArm
						{
							OFFSET	 0.000000	 0.364576	 0.000000
							CHANNELS 3 Zrotation Xrotation Yrotation
							JOINT LeftHand
							{
								OFFSET	 0.000000	 0.360812	 0.000000
								CHANNELS 3 Zrotation Xrotation Yrotation
								JOINT LeftHandIndex1
								{
									OFFSET	 0.000000	 0.086006	 0.000000
									CHANNELS 3 Zrotation Xrotation Yrotation
									JOINT LeftHandIndex2
									{
										OFFSET	 0.000000	 0.047237	 0.000000
										CHANNELS 3 Zrotation Xrotation Yrotation
										JOINT LeftHandIndex3
										{
											OFFSET	-0.004284	 0.038165	 0.000551
											CHANNELS 3 Zrotation Xrotation Yrotation
											End Site
											{
												OFFSET	-0.004284	 0.038165	 0.000551
											}
										}
									}
								}
							}
						}
					}
				}
				JOINT Neck
				{
					OFFSET	 0.000000	 0.176489	 0.000000
					CHANNELS 3 Zrotation Xrotation Yrotation
					JOINT Head
					{
						OFFSET	 0.000000	 0.077941	 0.001747
						CHANNELS 3 Zrotation Xrotation Yrotation
						End Site
						{
							OFFSET	 0.000000	 0.077941	 0.001747
						}
					}
				}
				JOINT RightShoulder
				{
					OFFSET	-0.080363	 0.159706	-0.000306
					CHANNELS 3 Zrotation Xrotation Yrotation
					JOINT RightArm
					{
						OFFSET	 0.000000	 0.164196	 0.000000
						CHANNELS 3 Zrotation Xrotation Yrotation
						JOINT RightForeArm
						{
							OFFSET	 0.000000	 0.365611	 0.000000
							CHANNELS 3 Zrotation Xrotation Yrotation
							JOINT RightHand
							{
								OFFSET	 0.000000	 0.360648	 0.000000
								CHANNELS 3 Zrotation Xrotation Yrotation
								JOINT RightHandIndex1
								{
									OFFSET	 0.000000	 0.069977	 0.000000
									CHANNELS 3 Zrotation Xrotation Yrotation
									JOINT RightHandIndex2
									{
										OFFSET	 0.000000	 0.052305	 0.000000
										CHANNELS 3 Zrotation Xrotation Yrotation
										JOINT RightHandIndex3
										{
											OFFSET	 0.009002	 0.042196	 0.000782
											CHANNELS 3 Zrotation Xrotation Yrotation
											End Site
											{
												OFFSET	 0.009002	 0.042196	 0.000782
											}
										}
									}
								}
							}
						}
					}
				}
			}
		}
	}
}
MOTION
Frames:    10
Frame Time: 0.03333334
-0.000810	 1.269460	-0.008483	-0.046980	 3.132257	 178.813600	-178.429000	 3.285985	-14.367260	 3.073870	-15.195870	 2.875170	-5.190361	 69.538380	 6.723285	 1.331492	 28.938720	-2.729976	 177.992900	 4.351471	 17.898740	-5.124828	-16.419880	-6.462928	 2.517808	 70.466460	-1.751634	-1.305359	 28.580650	 2.604887	-1.157982	 3.380006	 1.320243	-1.594954	 3.162826	-0.127439	-1.601356	-1.431052	-4.000391	-113.447100	 5.126866	 93.000230	 12.248250	 55.748920	 33.400050	 5.023543	-0.259581	-0.072456	 4.259348	-5.810820	-9.755944	-6.580301	 5.266122	 0.000000	 0.000000	 0.000000	 0.000000	 0.000000	 0.000000	 0.000000	 3.829524	-0.643172	-0.250000	 3.209223	 1.157386	 0.611142	 114.205800	-4.429138	-88.481950	-64.920300	-0.045825	 44.464330	-91.752170	-2.251987	-2.263386	-3.442399	-10.174700	-34.657060	-0.359781	 10.582440	 0.744568	 11.977790	 9.317313	-2.096066	-8.359142	 3.150338	 0.104224
-0.000760	 1.269491	-0.008324	 0.006167	 3.012502	 178.797000	-178.364500	 3.464003	-14.376470	 3.093990	-15.290520	 2.876353	-5.200589	 69.572370	 6.721416	 1.331492	 28.938720	-2.729976	 178.048700	 4.475681	 17.890140	-5.117682	-16.398250	-6.467717	 2.490065	 70.442240	-1.722945	-1.305362	 28.580660	 2.604173	-1.107398	 3.257977	 1.321776	-1.564242	 3.124773	-0.120396	-1.616228	-1.417184	-3.998771	-113.447100	 5.125366	 92.999920	 12.104810	 55.820400	 33.532680	 4.978364	-0.257276	-0.072649	 4.329601	-5.872787	-9.758451	-6.580301	 5.266122	 0.000000	 0.000000	 0.000000	 0.000000	 0.000000	 0.000000	 0.000000	 3.831986	-0.648822	-0.250767	 3.218492	 1.160596	 0.605814	 114.205400	-4.426137	-88.484110	-64.259210	 0.654958	 44.063210	-92.390520	-2.251117	-2.288511	-4.034429	-10.047150	-34.852350	-0.359781	 10.582430	 0.744568	 11.977790	 9.317299	-2.096063	-8.359142	 3.150330	 0.104225
-0.000688	 1.269538	-0.008177	 0.066662	 2.885940	 178.770700	-178.290200	 3.646007	-14.394350	 3.113911	-15.384290	 2.873507	-5.219090	 69.606090	 6.726132	 1.331492	 28.938720	-2.729976	 178.112500	 4.599641	 17.881780	-5.105567	-16.361600	-6.477499	 2.462533	 70.412580	-1.694294	-1.305367	 28.580690	 2.602789	-1.054010	 3.126168	 1.325819	-1.531821	 3.082361	-0.108286	-1.632335	-1.404747	-3.995802	-113.447100	 5.122440	 92.999270	 11.934390	 55.888480	 33.698100	 4.930799	-0.254846	-0.072891	 4.410547	-5.921443	-9.772194	-6.580301	 5.266122	 0.000000	 0.000000	 0.000000	 0.000000	 0.000000	 0.000000	 0.000000	 3.836761	-0.659777	-0.252254	 3.236456	 1.166808	 0.595489	 114.204500	-4.420324	-88.488330	-63.358540	 1.252708	 43.474380	-92.921300	-2.250135	-2.309335	-5.049325	-9.651916	-34.981480	-0.359780	 10.582400	 0.744568	 11.977790	 9.317269	-2.096057	-8.359142	 3.150315	 0.104226
-0.000587	 1.269588	-0.008064	 0.126863	 2.767510	 178.737200	-178.214100	 3.812047	-14.420940	 3.132247	-15.470470	 2.866756	-5.250374	 69.637820	 6.742930	 1.331492	 28.938720	-2.729976	 178.177800	 4.712000	 17.868300	-5.092268	-16.321380	-6.492823	 2.420826	 70.385820	-1.648433	-1.305375	 28.580740	 2.600791	-1.005284	 2.999854	 1.332238	-1.503539	 3.038947	-0.091770	-1.646882	-1.394966	-3.991563	-113.447200	 5.118178	 92.998330	 11.751690	 55.940140	 33.880260	 4.886233	-0.252532	-0.073113	 4.496479	-5.945619	-9.794161	-6.580301	 5.266122	 0.000000	 0.000000	 0.000000	 0.000000	 0.000000	 0.000000	 0.000000	 3.843655	-0.675596	-0.254400	 3.262409	 1.175708	 0.580598	 114.203300	-4.411927	-88.494390	-62.264050	 1.646975	 42.754040	-93.202610	-2.249548	-2.320364	-6.517298	-9.000756	-34.997010	-0.359779	 10.582360	 0.744568	 11.977790	 9.317227	-2.096048	-8.359141	 3.150293	 0.104228
-0.000448	 1.269639	-0.007989	 0.188314	 2.654250	 178.695800	-178.134000	 3.965955	-14.456450	 3.149683	-15.552240	 2.856157	-5.295687	 69.669670	 6.772088	 1.331492	 28.938720	-2.729976	 178.246500	 4.814551	 17.849640	-5.077163	-16.275660	-6.513873	 2.363914	 70.361330	-1.584549	-1.305385	 28.580790	 2.598149	-0.959783	 2.875798	 1.342125	-1.480047	 2.991174	-0.069471	-1.659630	-1.386588	-3.986016	-113.447300	 5.112600	 92.997100	 11.553360	 55.971570	 34.085420	 4.844100	-0.250381	-0.073253	 4.590037	-5.941164	-9.826297	-6.580301	 5.266122	 0.000000	 0.000000	 0.000000	 0.000000	 0.000000	 0.000000	 0.000000	 3.852772	-0.696515	-0.257235	 3.296736	 1.187464	 0.560896	 114.201700	-4.400803	-88.502450	-60.940570	 1.817457	 41.917100	-93.138680	-2.249673	-2.317879	-8.580291	-8.097391	-34.869110	-0.359777	 10.582300	 0.744568	 11.977790	 9.317173	-2.096037	-8.359140	 3.150264	 0.104231
-0.000265	 1.269693	-0.007965	 0.251031	 2.548593	 178.646700	-178.049500	 4.104502	-14.500160	 3.166285	-15.630220	 2.841764	-5.354646	 69.702990	 6.812457	 1.331492	 28.938720	-2.729976	 178.318700	 4.904331	 17.826190	-5.060429	-16.224980	-6.540369	 2.294206	 70.339860	-1.505542	-1.305398	 28.580870	 2.594903	-0.917243	 2.756823	 1.356045	-1.462838	 2.936914	-0.040833	-1.669825	-1.378297	-3.979264	-113.447400	 5.105724	 92.995600	 11.342390	 55.977300	 34.307460	 4.804202	-0.248325	-0.073410	 4.692982	-5.903088	-9.864511	-6.580301	 5.266122	 0.000000	 0.000000	 0.000000	 0.000000	 0.000000	 0.000000	 0.000000	 3.863967	-0.722209	-0.260712	 3.338908	 1.201916	 0.536662	 114.199700	-4.387165	-88.512310	-59.402480	 1.730395	 41.000580	-92.604140	-2.250736	-2.296867	-11.356100	-6.985667	-34.572340	-0.359775	 10.582230	 0.744568	 11.977790	 9.317103	-2.096024	-8.359138	 3.150228	 0.104234
-0.000028	 1.269748	-0.007997	 0.316495	 2.449930	 178.589700	-177.958500	 4.228333	-14.552350	 3.182447	-15.706030	 2.823756	-5.429587	 69.739110	 6.865635	 1.331492	 28.938720	-2.729976	 178.396300	 4.980780	 17.797820	-5.041641	-16.168040	-6.572491	 2.209577	 70.321450	-1.409294	-1.305413	 28.580950	 2.591029	-0.876327	 2.642678	 1.374497	-1.452442	 2.871695	-0.005087	-1.677299	-1.368114	-3.971180	-113.447500	 5.097507	 92.993780	 11.114100	 55.952320	 34.551120	 4.767523	-0.246387	-0.073578	 4.808100	-5.826728	-9.908491	-6.580301	 5.266122	 0.000000	 0.000000	 0.000000	 0.000000	 0.000000	 0.000000	 0.000000	 3.877330	-0.752882	-0.264856	 3.389268	 1.219179	 0.507684	 114.197300	-4.370866	-88.524080	-57.655680	 1.349219	 40.011910	-91.445910	-2.252334	-2.251365	-15.031230	-5.710211	-34.091290	-0.359772	 10.582150	 0.744568	 11.977790	 9.317022	-2.096007	-8.359138	 3.150184	 0.104238
 0.000272	 1.269804	-0.008091	 0.385467	 2.358129	 178.525200	-177.859600	 4.337695	-14.612840	 3.198532	-15.781390	 2.802259	-5.521996	 69.779460	 6.932446	 1.331492	 28.938720	-2.729976	 178.480300	 5.043016	 17.764550	-5.020575	-16.104120	-6.610262	 2.109051	 70.306180	-1.294935	-1.305431	 28.581050	 2.586530	-0.836188	 2.532703	 1.397560	-1.449739	 2.794905	 0.037915	-1.681551	-1.355880	-3.961809	-113.447700	 5.087979	 92.991710	 10.867060	 55.892650	 34.818200	 4.733290	-0.244615	-0.073729	 4.938454	-5.709081	-9.958891	-6.580301	 5.266122	 0.000000	 0.000000	 0.000000	 0.000000	 0.000000	 0.000000	 0.000000	 3.892843	-0.788498	-0.269658	 3.447774	 1.239141	 0.474033	 114.194600	-4.351970	-88.537770	-55.762420	 0.627724	 38.949160	-89.489880	-2.252950	-2.174485	-19.767230	-4.354590	-33.438760	-0.359769	 10.582060	 0.744568	 11.977790	 9.316928	-2.095988	-8.359135	 3.150135	 0.104243
 0.000555	 1.269811	-0.008332	 0.438084	 2.345623	 178.466000	-177.781200	 4.349378	-14.671890	 3.211924	-15.844060	 2.780485	-5.630064	 69.825490	 7.017219	 1.331492	 28.938720	-2.729976	 178.547500	 5.019021	 17.731390	-5.003227	-16.051490	-6.648752	 2.007122	 70.309540	-1.176479	-1.305448	 28.581150	 2.582084	-0.813833	 2.502364	 1.419999	-1.435782	 2.728487	 0.078798	-1.690943	-1.348132	-3.952560	-113.447800	 5.078552	 92.989670	 10.713490	 55.773270	 35.001210	 4.729099	-0.244400	-0.073735	 5.037961	-5.514352	-10.015710	-6.580301	 5.266122	 0.000000	 0.000000	 0.000000	 0.000000	 0.000000	 0.000000	 0.000000	 3.908173	-0.823702	-0.274396	 3.505625	 1.258865	 0.440718	 114.191900	-4.333270	-88.551270	-54.461950	-0.877442	 38.173350	-86.508260	-2.248881	-2.057330	-24.710080	-3.014186	-32.520010	-0.359766	 10.581960	 0.744568	 11.977790	 9.316835	-2.095969	-8.359134	 3.150086	 0.104248
 0.000748	 1.269806	-0.008528	 0.471502	 2.351233	 178.427500	-177.730800	 4.340096	-14.711040	 3.220830	-15.885740	 2.765970	-5.706982	 69.858970	 7.078352	 1.331492	 28.938720	-2.729976	 178.590700	 4.986669	 17.709280	-4.991957	-16.017290	-6.674664	 1.937629	 70.315160	-1.095551	-1.305459	 28.581210	 2.579115	-0.800896	 2.495680	 1.434774	-1.424267	 2.682955	 0.105792	-1.698214	-1.342238	-3.946386	-113.447900	 5.072267	 92.988270	 10.622310	 55.678810	 35.112820	 4.732511	-0.244644	-0.073707	 5.101954	-5.367017	-10.055050	-6.580301	 5.266122	 0.000000	 0.000000	 0.000000	 0.000000	 0.000000	 0.000000	 0.000000	 3.918406	-0.847206	-0.277554	 3.544262	 1.272018	 0.418449	 114.190100	-4.320795	-88.560300	-53.776080	-2.058900	 37.686730	-84.155200	-2.241358	-1.965158	-28.213340	-2.199375	-31.877870	-0.359764	 10.581900	 0.744568	 11.977790	 9.316773	-2.095957	-8.359132	 3.150053	 0.104251
